<svg width="115" height="115" viewBox="0 0 115 115" fill="none" xmlns="http://www.w3.org/2000/svg">
<g id="Group">
<path id="Vector" d="M11.5 13C12.3284 13 13 12.3284 13 11.5C13 10.6716 12.3284 10 11.5 10C10.6716 10 10 10.6716 10 11.5C10 12.3284 10.6716 13 11.5 13Z" fill="#E9E9E9"/>
<path id="Vector_2" d="M34.5 13C35.3284 13 36 12.3284 36 11.5C36 10.6716 35.3284 10 34.5 10C33.6716 10 33 10.6716 33 11.5C33 12.3284 33.6716 13 34.5 13Z" fill="#E9E9E9"/>
<path id="Vector_3" d="M57.5 13C58.3284 13 59 12.3284 59 11.5C59 10.6716 58.3284 10 57.5 10C56.6716 10 56 10.6716 56 11.5C56 12.3284 56.6716 13 57.5 13Z" fill="#E9E9E9"/>
<path id="Vector_4" d="M80.5 13C81.3284 13 82 12.3284 82 11.5C82 10.6716 81.3284 10 80.5 10C79.6716 10 79 10.6716 79 11.5C79 12.3284 79.6716 13 80.5 13Z" fill="#E9E9E9"/>
<path id="Vector_5" d="M103.5 13C104.328 13 105 12.3284 105 11.5C105 10.6716 104.328 10 103.5 10C102.672 10 102 10.6716 102 11.5C102 12.3284 102.672 13 103.5 13Z" fill="#E9E9E9"/>
<path id="Vector_6" d="M11.5 36C12.3284 36 13 35.3284 13 34.5C13 33.6716 12.3284 33 11.5 33C10.6716 33 10 33.6716 10 34.5C10 35.3284 10.6716 36 11.5 36Z" fill="#E9E9E9"/>
<path id="Vector_7" d="M34.5 36C35.3284 36 36 35.3284 36 34.5C36 33.6716 35.3284 33 34.5 33C33.6716 33 33 33.6716 33 34.5C33 35.3284 33.6716 36 34.5 36Z" fill="#E9E9E9"/>
<path id="Vector_8" d="M57.5 36C58.3284 36 59 35.3284 59 34.5C59 33.6716 58.3284 33 57.5 33C56.6716 33 56 33.6716 56 34.5C56 35.3284 56.6716 36 57.5 36Z" fill="#E9E9E9"/>
<path id="Vector_9" d="M80.5 36C81.3284 36 82 35.3284 82 34.5C82 33.6716 81.3284 33 80.5 33C79.6716 33 79 33.6716 79 34.5C79 35.3284 79.6716 36 80.5 36Z" fill="#E9E9E9"/>
<path id="Vector_10" d="M103.5 36C104.328 36 105 35.3284 105 34.5C105 33.6716 104.328 33 103.5 33C102.672 33 102 33.6716 102 34.5C102 35.3284 102.672 36 103.5 36Z" fill="#E9E9E9"/>
<path id="Vector_11" d="M11.5 59C12.3284 59 13 58.3284 13 57.5C13 56.6716 12.3284 56 11.5 56C10.6716 56 10 56.6716 10 57.5C10 58.3284 10.6716 59 11.5 59Z" fill="#E9E9E9"/>
<path id="Vector_12" d="M34.5 59C35.3284 59 36 58.3284 36 57.5C36 56.6716 35.3284 56 34.5 56C33.6716 56 33 56.6716 33 57.5C33 58.3284 33.6716 59 34.5 59Z" fill="#E9E9E9"/>
<path id="Vector_13" d="M57.5 59C58.3284 59 59 58.3284 59 57.5C59 56.6716 58.3284 56 57.5 56C56.6716 56 56 56.6716 56 57.5C56 58.3284 56.6716 59 57.5 59Z" fill="#E9E9E9"/>
<path id="Vector_14" d="M80.5 59C81.3284 59 82 58.3284 82 57.5C82 56.6716 81.3284 56 80.5 56C79.6716 56 79 56.6716 79 57.5C79 58.3284 79.6716 59 80.5 59Z" fill="#E9E9E9"/>
<path id="Vector_15" d="M103.5 59C104.328 59 105 58.3284 105 57.5C105 56.6716 104.328 56 103.5 56C102.672 56 102 56.6716 102 57.5C102 58.3284 102.672 59 103.5 59Z" fill="#E9E9E9"/>
<path id="Vector_16" d="M11.5 82C12.3284 82 13 81.3284 13 80.5C13 79.6716 12.3284 79 11.5 79C10.6716 79 10 79.6716 10 80.5C10 81.3284 10.6716 82 11.5 82Z" fill="#E9E9E9"/>
<path id="Vector_17" d="M34.5 82C35.3284 82 36 81.3284 36 80.5C36 79.6716 35.3284 79 34.5 79C33.6716 79 33 79.6716 33 80.5C33 81.3284 33.6716 82 34.5 82Z" fill="#E9E9E9"/>
<path id="Vector_18" d="M57.5 82C58.3284 82 59 81.3284 59 80.5C59 79.6716 58.3284 79 57.5 79C56.6716 79 56 79.6716 56 80.5C56 81.3284 56.6716 82 57.5 82Z" fill="#E9E9E9"/>
<path id="Vector_19" d="M80.5 82C81.3284 82 82 81.3284 82 80.5C82 79.6716 81.3284 79 80.5 79C79.6716 79 79 79.6716 79 80.5C79 81.3284 79.6716 82 80.5 82Z" fill="#E9E9E9"/>
<path id="Vector_20" d="M103.5 82C104.328 82 105 81.3284 105 80.5C105 79.6716 104.328 79 103.5 79C102.672 79 102 79.6716 102 80.5C102 81.3284 102.672 82 103.5 82Z" fill="#E9E9E9"/>
<path id="Vector_21" d="M11.5 105C12.3284 105 13 104.328 13 103.5C13 102.672 12.3284 102 11.5 102C10.6716 102 10 102.672 10 103.5C10 104.328 10.6716 105 11.5 105Z" fill="#E9E9E9"/>
<path id="Vector_22" d="M34.5 105C35.3284 105 36 104.328 36 103.5C36 102.672 35.3284 102 34.5 102C33.6716 102 33 102.672 33 103.5C33 104.328 33.6716 105 34.5 105Z" fill="#E9E9E9"/>
<path id="Vector_23" d="M57.5 105C58.3284 105 59 104.328 59 103.5C59 102.672 58.3284 102 57.5 102C56.6716 102 56 102.672 56 103.5C56 104.328 56.6716 105 57.5 105Z" fill="#E9E9E9"/>
<path id="Vector_24" d="M80.5 105C81.3284 105 82 104.328 82 103.5C82 102.672 81.3284 102 80.5 102C79.6716 102 79 102.672 79 103.5C79 104.328 79.6716 105 80.5 105Z" fill="#E9E9E9"/>
<path id="Vector_25" d="M103.5 105C104.328 105 105 104.328 105 103.5C105 102.672 104.328 102 103.5 102C102.672 102 102 102.672 102 103.5C102 104.328 102.672 105 103.5 105Z" fill="#E9E9E9"/>
</g>
</svg>
